<svg width="50" height="50" viewBox="0 0 50 50" fill="none" xmlns="http://www.w3.org/2000/svg">
<path d="M45 25C45 13.9543 36.0457 5 25 5C13.9543 5 5 13.9543 5 25C5 36.0457 13.9543 45 25 45C36.0457 45 45 36.0457 45 25Z" fill="#FCCCCC"/>
<path d="M26.4658 25L32.6959 18.7697C33.1014 18.3644 33.1014 17.7092 32.6959 17.3039C32.2907 16.8987 31.6354 16.8987 31.2302 17.3039L24.9999 23.5342L18.7698 17.3039C18.3644 16.8987 17.7093 16.8987 17.3041 17.3039C16.8986 17.7092 16.8986 18.3644 17.3041 18.7697L23.5342 25L17.3041 31.2302C16.8986 31.6354 16.8986 32.2907 17.3041 32.696C17.506 32.8981 17.7716 32.9996 18.037 32.9996C18.3023 32.9996 18.5677 32.8981 18.7698 32.696L24.9999 26.4657L31.2302 32.696C31.4323 32.8981 31.6977 32.9996 31.963 32.9996C32.2284 32.9996 32.4938 32.8981 32.6959 32.696C33.1014 32.2907 33.1014 31.6354 32.6959 31.2302L26.4658 25Z" fill="#A94646"/>
</svg>
