<svg width="125" height="122" viewBox="0 0 125 122" fill="none" xmlns="http://www.w3.org/2000/svg">
<path d="M5.5575 116.515C5.65102 117.691 6.50334 118.666 7.65759 118.915L16.9691 120.924C17.2977 122.511 17.7145 124.077 18.2195 125.605L11.1711 131.991C10.2974 132.782 10.0463 134.053 10.5539 135.119C11.8418 137.829 13.2765 140.332 14.8182 142.561C15.4862 143.528 16.7099 143.945 17.8348 143.584L26.8844 140.669C27.9665 141.882 29.1181 143.034 30.3311 144.116L27.4161 153.165C27.0554 154.285 27.4695 155.511 28.4394 156.182C30.6678 157.723 33.1713 159.158 35.8806 160.446C36.9494 160.954 38.2185 160.7 39.0094 159.829L45.3952 152.781C46.9261 153.283 48.4919 153.702 50.079 154.031L52.0882 163.342C52.3367 164.494 53.3119 165.346 54.4849 165.443C55.9063 165.555 57.3304 165.656 58.7812 165.656C60.2321 165.656 61.6562 165.555 63.0776 165.443C64.2533 165.349 65.2285 164.497 65.477 163.342L67.4862 154.031C69.0733 153.702 70.6417 153.285 72.17 152.781L78.5558 159.829C79.3493 160.703 80.6212 160.956 81.6846 160.446C84.3938 159.158 86.8974 157.721 89.1257 156.182C90.0956 155.511 90.5098 154.285 90.1491 153.165L87.234 144.116C88.4471 143.034 89.5987 141.882 90.6808 140.672L99.7304 143.587C100.85 143.95 102.076 143.533 102.747 142.563C104.289 140.335 105.723 137.831 107.011 135.122C107.519 134.056 107.268 132.784 106.394 131.993L99.3457 125.608C99.848 124.077 100.267 122.511 100.596 120.924L109.908 118.915C111.059 118.666 111.911 117.691 112.008 116.518C112.117 115.094 112.219 113.67 112.219 112.219C112.219 110.768 112.117 109.344 112.005 107.922C111.911 106.747 111.059 105.772 109.905 105.523L100.593 103.514C100.265 101.927 99.848 100.358 99.343 98.83L106.391 92.4442C107.265 91.6534 107.516 90.3815 107.009 89.3155C105.721 86.6062 104.283 84.1026 102.744 81.8743C102.074 80.9044 100.847 80.4876 99.7277 80.851L90.6781 83.766C89.596 82.553 88.4444 81.4014 87.2314 80.3193L90.1464 71.2696C90.5071 70.1501 90.0929 68.9237 89.1231 68.2531C86.8947 66.7114 84.3912 65.2766 81.6819 63.9888C80.6131 63.4784 79.344 63.7323 78.5531 64.606L72.1673 71.6544C70.6364 71.1521 69.0706 70.7326 67.4835 70.4039L65.4743 61.0925C65.2258 59.9409 64.2506 59.0885 63.0776 58.9924C60.2321 58.7626 57.3278 58.7679 54.4822 58.9924C53.3066 59.0859 52.3313 59.9382 52.0829 61.0925L50.0736 70.4039C48.4865 70.7326 46.9208 71.1494 45.3925 71.6544L39.0067 64.606C38.2158 63.7323 36.9467 63.4811 35.8779 63.9888C33.1687 65.2766 30.6651 66.7114 28.4368 68.2531C27.4669 68.9237 27.0527 70.1501 27.4134 71.2696L30.3285 80.3193C29.1154 81.4014 27.9638 82.553 26.8817 83.766L17.8348 80.851C16.7126 80.4876 15.4862 80.9044 14.8182 81.8743C13.2765 84.1026 11.8418 86.6062 10.5539 89.3155C10.0463 90.3815 10.2974 91.6534 11.1711 92.4442L18.2195 98.83C17.7172 100.361 17.2977 101.927 16.9691 103.514L7.65759 105.523C6.50602 105.772 5.65369 106.747 5.5575 107.92C5.44528 109.344 5.34375 110.768 5.34375 112.219C5.34375 113.67 5.44528 115.094 5.5575 116.515ZM10.7436 110.324L19.8333 108.361C20.9074 108.128 21.7304 107.262 21.9067 106.178C22.3075 103.714 22.9541 101.296 23.8278 98.9877C24.2179 97.9617 23.9373 96.7994 23.1224 96.062L16.2584 89.8418C16.8569 88.6956 17.4821 87.5975 18.1287 86.5581L26.9352 89.3956C27.9772 89.7296 29.1261 89.3956 29.8235 88.546C31.3999 86.6169 33.1793 84.8401 35.1084 83.261C35.9581 82.5663 36.2974 81.4201 35.9581 80.3727L33.1206 71.5662C34.1599 70.9169 35.2554 70.2917 36.4043 69.6959L42.6244 76.5626C43.3645 77.3775 44.5295 77.6581 45.5528 77.268C47.856 76.3943 50.274 75.7477 52.7401 75.3469C53.8249 75.1706 54.6906 74.3476 54.9231 73.2735L56.8842 64.1838C58.1427 64.117 59.4225 64.1143 60.6756 64.1838L62.6394 73.2735C62.8719 74.3476 63.7376 75.1706 64.8224 75.3469C67.2858 75.7477 69.7039 76.3943 72.0124 77.268C73.033 77.6581 74.198 77.3802 74.9381 76.5626L81.1582 69.6986C82.3044 70.2971 83.4026 70.9223 84.4419 71.5689L81.6044 80.3754C81.2677 81.4228 81.6044 82.5663 82.4541 83.2637C84.3832 84.8401 86.16 86.6195 87.739 88.5486C88.4364 89.401 89.5826 89.7403 90.6273 89.3983L99.4338 86.5608C100.083 87.6001 100.708 88.6956 101.304 89.8418L94.4374 96.062C93.6225 96.7994 93.342 97.9617 93.732 98.9903C94.6058 101.293 95.2523 103.712 95.6531 106.178C95.8295 107.262 96.6524 108.128 97.7265 108.361L106.816 110.322C106.851 110.95 106.875 111.583 106.875 112.219C106.875 112.855 106.854 113.488 106.819 114.113L97.7292 116.077C96.6551 116.309 95.8321 117.175 95.6558 118.26C95.255 120.723 94.6084 123.141 93.7347 125.45C93.3446 126.476 93.6252 127.638 94.4401 128.376L101.304 134.596C100.706 135.742 100.08 136.84 99.4338 137.879L90.6273 135.042C89.5773 134.7 88.4364 135.039 87.739 135.892C86.1653 137.815 84.3858 139.595 82.4541 141.177C81.6044 141.871 81.2677 143.017 81.6044 144.062L84.4419 152.869C83.4026 153.518 82.3071 154.143 81.1609 154.739L74.9408 147.872C74.2033 147.057 73.041 146.782 72.0124 147.167C69.7092 148.041 67.2912 148.687 64.825 149.088C63.7402 149.264 62.8746 150.087 62.6421 151.161L60.681 160.251C59.4225 160.318 58.1427 160.321 56.8896 160.251L54.9257 151.161C54.6933 150.087 53.8276 149.264 52.7428 149.088C50.2793 148.687 47.8613 148.041 45.5528 147.167C44.5295 146.777 43.3645 147.055 42.6271 147.872L36.407 154.736C35.2607 154.138 34.1626 153.513 33.1232 152.866L35.9608 144.06C36.2974 143.012 35.9608 141.869 35.1111 141.171C33.182 139.595 31.4052 137.815 29.8261 135.886C29.1288 135.034 27.9799 134.697 26.9378 135.037L18.1313 137.874C17.4821 136.835 16.8569 135.739 16.261 134.59L23.1278 128.37C23.9427 127.633 24.2232 126.471 23.8331 125.442C22.9594 123.139 22.3128 120.721 21.912 118.255C21.7357 117.17 20.9128 116.304 19.8387 116.072L10.7436 114.116C10.7115 113.488 10.6875 112.855 10.6875 112.219C10.6875 111.583 10.7089 110.95 10.7436 110.324Z" fill="#C71A2E" fill-opacity="0.5"/>
<path d="M144.866 43.3779C145.871 43.0626 146.598 42.1836 146.718 41.1362C146.878 39.7869 146.953 38.5659 146.953 37.4063C146.953 36.2467 146.878 35.0256 146.721 33.6763C146.6 32.6289 145.874 31.7499 144.869 31.4346L137.46 29.1074C137.238 28.5009 136.992 27.9051 136.723 27.3226L140.314 20.4425C140.8 19.51 140.693 18.3772 140.041 17.5489C138.494 15.5931 136.714 13.8136 134.753 12.2612C133.925 11.6066 132.792 11.5024 131.86 11.986L124.974 15.577C124.392 15.3099 123.796 15.064 123.189 14.8423L120.862 7.43316C120.547 6.42854 119.668 5.70179 118.621 5.58155C115.917 5.26627 113.862 5.26627 111.158 5.58155C110.111 5.70179 109.232 6.42854 108.916 7.43316L106.589 14.8423C105.983 15.064 105.387 15.3099 104.804 15.5797L97.9242 11.9887C96.9917 11.5051 95.8615 11.6093 95.0306 12.2612C93.0748 13.8083 91.2953 15.5877 89.7429 17.5489C89.0883 18.3772 88.9815 19.5074 89.4677 20.4425L93.0561 27.3226C92.7889 27.9051 92.5431 28.5009 92.3213 29.1074L84.9122 31.4346C83.9076 31.7499 83.1808 32.6289 83.0606 33.6763C82.9029 35.0256 82.8281 36.2467 82.8281 37.4063C82.8281 38.5659 82.9029 39.7869 83.0606 41.1362C83.1808 42.1836 83.9076 43.0626 84.9122 43.3779L92.3213 45.7051C92.5431 46.3116 92.7889 46.9074 93.0587 47.4899L89.4677 54.37C88.9815 55.3025 89.0883 56.4353 89.7403 57.2636C91.2873 59.2194 93.0668 60.9989 95.0279 62.5513C95.8535 63.2059 96.9891 63.3101 97.9215 62.8265L104.802 59.2381C105.384 59.5053 105.98 59.7511 106.586 59.9729L108.914 67.382C109.229 68.3866 110.108 69.1134 111.155 69.2336C112.51 69.3939 113.731 69.4688 114.891 69.4688C116.05 69.4688 117.271 69.3939 118.621 69.2363C119.668 69.1161 120.547 68.3893 120.862 67.3847L123.189 59.9756C123.796 59.7538 124.392 59.508 124.974 59.2381L131.854 62.8291C132.787 63.3154 133.92 63.2112 134.748 62.5566C136.704 61.0096 138.483 59.2301 140.036 57.269C140.69 56.4407 140.797 55.3105 140.311 54.3753L136.72 47.4953C136.99 46.9128 137.236 46.317 137.457 45.7104L144.866 43.3779ZM134.553 41.016C133.709 41.2831 133.051 41.9484 132.795 42.7981C132.431 44.0058 131.951 45.1681 131.368 46.2555C130.949 47.0357 130.941 47.9735 131.352 48.7564L134.743 55.2544C134.109 55.9571 133.439 56.6277 132.739 57.2583L126.241 53.8677C125.455 53.4562 124.517 53.4669 123.74 53.8837C122.652 54.4662 121.49 54.9471 120.282 55.3105C119.435 55.5643 118.768 56.2243 118.5 57.0686L116.299 64.0796C115.323 64.1384 114.46 64.1384 113.483 64.0796L111.281 57.0686C111.014 56.2243 110.348 55.567 109.499 55.3105C108.288 54.9471 107.126 54.4662 106.044 53.8837C105.264 53.4642 104.326 53.4562 103.54 53.8677L97.0425 57.2583C96.3398 56.6251 95.6692 55.9544 95.0386 55.2544L98.4292 48.7564C98.838 47.9735 98.8327 47.033 98.4132 46.2555C97.8307 45.1681 97.3498 44.0058 96.9864 42.7981C96.7326 41.9511 96.0726 41.2831 95.2283 41.016L88.2173 38.8143C88.1852 38.3254 88.1719 37.8578 88.1719 37.4063C88.1719 36.9547 88.1852 36.4871 88.2173 35.9982L95.2283 33.7966C96.0726 33.5294 96.7299 32.8641 96.9864 32.0144C97.3498 30.8041 97.8307 29.6418 98.4132 28.5597C98.8327 27.7795 98.8407 26.8417 98.4292 26.0561L95.0386 19.5581C95.6718 18.8554 96.3425 18.1848 97.0425 17.5542L103.54 20.9448C104.323 21.3536 105.264 21.3456 106.041 20.9288C107.129 20.3463 108.291 19.8654 109.499 19.502C110.346 19.2482 111.014 18.5882 111.281 17.7439L113.483 10.7329C114.458 10.6741 115.321 10.6741 116.299 10.7329L118.5 17.7439C118.768 18.5882 119.433 19.2455 120.282 19.502C121.493 19.8654 122.655 20.3463 123.737 20.9288C124.517 21.3483 125.455 21.3563 126.241 20.9448L132.739 17.5542C133.441 18.1875 134.112 18.8581 134.743 19.5581L131.352 26.0561C130.943 26.839 130.949 27.7795 131.368 28.557C131.951 29.6445 132.431 30.8067 132.795 32.0144C133.049 32.8614 133.709 33.5294 134.553 33.7966L141.564 35.9982C141.596 36.4871 141.609 36.9547 141.609 37.4063C141.609 37.8578 141.596 38.3254 141.564 38.8143L134.553 41.016Z" fill="#C71A2E" fill-opacity="0.5"/>
<path d="M163.684 93.4195L159.094 91.7896C158.832 91.0442 158.533 90.3147 158.194 89.6067L160.28 85.2114C160.716 84.2977 160.596 83.2182 159.971 82.422C158.635 80.7147 157.09 79.1677 155.378 77.8264C154.579 77.2012 153.494 77.0836 152.585 77.5164L148.188 79.6032C147.482 79.2665 146.753 78.9646 146.007 78.7054L144.375 74.1152C144.035 73.1613 143.183 72.48 142.178 72.3571C139.798 72.0712 138.074 72.0712 135.694 72.3571C134.689 72.4773 133.837 73.1586 133.498 74.1152L131.868 78.7054C131.122 78.9673 130.393 79.2665 129.685 79.6059L125.29 77.5191C124.381 77.0863 123.299 77.2065 122.5 77.8291C120.793 79.165 119.246 80.7093 117.904 82.422C117.282 83.2182 117.162 84.3003 117.595 85.2141L119.681 89.612C119.345 90.3174 119.043 91.0468 118.784 91.7923L114.193 93.4248C113.239 93.7641 112.558 94.6164 112.435 95.6211C112.288 96.8047 112.219 97.8654 112.219 98.8594C112.219 99.8533 112.288 100.911 112.433 102.1C112.553 103.105 113.234 103.957 114.191 104.297L118.781 105.926C119.043 106.672 119.342 107.401 119.681 108.109L117.595 112.505C117.159 113.418 117.279 114.498 117.904 115.294C119.24 117.001 120.785 118.548 122.497 119.89C123.294 120.512 124.378 120.632 125.29 120.2L129.687 118.113C130.393 118.45 131.122 118.751 131.868 119.011L133.5 123.601C133.84 124.555 134.692 125.236 135.697 125.359C136.885 125.509 137.944 125.578 138.938 125.578C139.931 125.578 140.99 125.509 142.178 125.364C143.183 125.244 144.035 124.563 144.375 123.606L146.005 119.016C146.75 118.754 147.479 118.455 148.188 118.116L152.583 120.202C153.494 120.638 154.579 120.52 155.372 119.892C157.08 118.556 158.627 117.012 159.968 115.299C160.59 114.503 160.711 113.421 160.278 112.507L158.191 108.109C158.528 107.404 158.83 106.675 159.089 105.929L163.679 104.297C164.633 103.957 165.314 103.105 165.437 102.1C165.587 100.911 165.656 99.8533 165.656 98.8594C165.656 97.8654 165.587 96.8074 165.442 95.6184C165.322 94.6111 164.641 93.7614 163.684 93.4195ZM160.286 99.8346L156.051 101.339C155.231 101.63 154.603 102.303 154.37 103.142C154.02 104.412 153.521 105.622 152.887 106.741C152.46 107.498 152.428 108.417 152.799 109.202L154.718 113.245C154.274 113.731 153.809 114.196 153.326 114.637L149.283 112.718C148.503 112.347 147.581 112.379 146.822 112.807C145.7 113.442 144.49 113.939 143.226 114.289C142.387 114.522 141.714 115.15 141.42 115.97L139.915 120.205C139.269 120.24 138.612 120.24 137.965 120.205L136.461 115.97C136.169 115.15 135.496 114.522 134.657 114.289C133.388 113.939 132.178 113.44 131.058 112.807C130.302 112.382 129.386 112.35 128.597 112.718L124.555 114.637C124.069 114.193 123.604 113.728 123.163 113.245L125.081 109.202C125.455 108.417 125.42 107.498 124.993 106.741C124.357 105.619 123.86 104.409 123.51 103.145C123.278 102.306 122.65 101.633 121.829 101.339L117.595 99.8346C117.573 99.5113 117.562 99.188 117.562 98.8594C117.562 98.5307 117.573 98.2048 117.589 97.8841L121.824 96.3772C122.644 96.086 123.272 95.4127 123.502 94.5737C123.855 93.3019 124.354 92.0942 124.988 90.9747C125.415 90.2185 125.447 89.2994 125.076 88.5139L123.157 84.4713C123.601 83.9851 124.066 83.5202 124.549 83.0793L128.592 84.9977C129.378 85.3718 130.297 85.3397 131.053 84.9095C132.175 84.2736 133.385 83.7767 134.649 83.4266C135.488 83.1942 136.161 82.5663 136.455 81.746L137.96 77.5111C138.606 77.4764 139.263 77.4764 139.91 77.5111L141.414 81.746C141.706 82.5663 142.379 83.1942 143.218 83.4266C144.487 83.7767 145.697 84.2763 146.817 84.9095C147.576 85.3397 148.492 85.3718 149.278 84.9977L153.32 83.0793C153.806 83.5228 154.271 83.9877 154.712 84.4713L152.794 88.5139C152.42 89.2994 152.455 90.2185 152.882 90.9747C153.518 92.0969 154.015 93.3072 154.365 94.571C154.597 95.41 155.225 96.0833 156.046 96.3772L160.28 97.8815C160.302 98.2074 160.312 98.5307 160.312 98.8594C160.312 99.188 160.302 99.5113 160.286 99.8346Z" fill="#C71A2E" fill-opacity="0.5"/>
<path d="M58.7812 141.609C74.9862 141.609 88.1719 128.424 88.1719 112.219C88.1719 96.0138 74.9862 82.8281 58.7812 82.8281C42.5763 82.8281 29.3906 96.0138 29.3906 112.219C29.3906 128.424 42.5763 141.609 58.7812 141.609ZM58.7812 88.1719C72.0391 88.1719 82.8281 98.9609 82.8281 112.219C82.8281 125.477 72.0391 136.266 58.7812 136.266C45.5234 136.266 34.7344 125.477 34.7344 112.219C34.7344 98.9609 45.5234 88.1719 58.7812 88.1719Z" fill="#C71A2E" fill-opacity="0.5"/>
<path d="M114.891 24.0469C107.524 24.0469 101.531 30.0399 101.531 37.4062C101.531 44.7726 107.524 50.7656 114.891 50.7656C122.257 50.7656 128.25 44.7726 128.25 37.4062C128.25 30.0399 122.257 24.0469 114.891 24.0469ZM114.891 45.4219C110.471 45.4219 106.875 41.8255 106.875 37.4062C106.875 32.987 110.471 29.3906 114.891 29.3906C119.31 29.3906 122.906 32.987 122.906 37.4062C122.906 41.8255 119.31 45.4219 114.891 45.4219Z" fill="#C71A2E" fill-opacity="0.5"/>
</svg>
