<svg width="36" height="36" viewBox="0 0 36 36" fill="none" xmlns="http://www.w3.org/2000/svg">
<path d="M11.1227 8.6368V13.6277H14.0842V8.6368C14.0842 7.1521 14.842 6.00052 15.4946 6.00052H28.6277C29.2799 6.00052 30.0386 7.1521 30.0386 8.6368V27.5028C30.0386 28.987 29.2799 30.1386 28.6277 30.1386H15.4961C14.8435 30.1386 14.0853 28.987 14.0853 27.5028V22.5125H11.1237V27.5028C11.1237 30.6417 13.0443 33.1003 15.4961 33.1003H28.6284C31.0806 33.1003 33 30.6417 33 27.5028V8.63586C33 5.49799 31.0795 3.03839 28.6284 3.03839H15.4961C13.0433 3.03887 11.1227 5.49752 11.1227 8.6368Z" fill="#8A9EAB"/>
<path d="M17.3124 13.5889C17.3124 13.9679 17.4573 14.3465 17.7465 14.6357L19.6002 16.4897H13.17H10.2084H4.53441C3.717 16.4897 3.0536 17.1527 3.0536 17.9706C3.0536 18.7886 3.717 19.4514 4.53441 19.4514H10.2079H13.1695H19.7L17.7461 21.4054C17.4569 21.6947 17.3117 22.0739 17.3117 22.4524C17.3117 22.831 17.4569 23.2103 17.7461 23.4995C18.3238 24.078 19.2615 24.078 19.8396 23.4995L24.2607 19.0782C24.5501 18.789 24.6936 18.4097 24.6936 18.0318C24.6936 18.0278 24.6936 18.024 24.6936 18.0204C24.6936 18.017 24.6936 18.013 24.6936 18.0096C24.6936 17.6306 24.5501 17.2524 24.2607 16.9632L19.8396 12.5419C19.2615 11.9634 18.3238 11.9634 17.7461 12.5419C17.4573 12.8311 17.3124 13.2093 17.3124 13.5889Z" fill="#8A9EAB"/>
</svg>
