<svg width="50" height="50" viewBox="0 0 50 50" fill="none" xmlns="http://www.w3.org/2000/svg">
<path d="M25.1212 45.33C25.8688 45.33 26.5285 45.0225 27.0343 44.5392C27.5181 44.056 27.8259 43.375 27.8259 42.6282V27.845H42.6252C43.3729 27.845 44.0326 27.5375 44.5384 27.0542C45.0221 26.571 45.33 25.89 45.33 25.1432C45.33 23.6495 44.1206 22.4414 42.6472 22.4633H27.8479V7.68016C27.8479 6.18646 26.6385 4.97833 25.1651 5.00029C23.6698 5.00029 22.4604 6.20843 22.4824 7.68016V22.4633H7.68308C6.18776 22.4633 4.97831 23.6715 5.0003 25.1432C5.0003 26.6369 6.20975 27.845 7.68308 27.823H22.4824V42.6062C22.4164 44.1219 23.6258 45.33 25.1212 45.33Z" fill="white" stroke="white"/>
</svg>
