<?xml version="1.0" standalone="no"?>
<!DOCTYPE svg PUBLIC "-//W3C//DTD SVG 20010904//EN"
 "http://www.w3.org/TR/2001/REC-SVG-20010904/DTD/svg10.dtd">
<svg version="1.0" xmlns="http://www.w3.org/2000/svg"
 width="1134.000000pt" height="1134.000000pt" viewBox="0 0 1134.000000 1134.000000"
 preserveAspectRatio="xMidYMid meet">
<metadata>
Created by potrace 1.14, written by Peter Selinger 2001-2017
</metadata>
<g transform="translate(0.000000,1134.000000) scale(0.100000,-0.100000)"
fill="#000000" stroke="none">
<path d="M5004 7209 c-127 -5 -295 -13 -375 -18 -79 -5 -191 -12 -249 -15 -90
-5 -272 -20 -505 -41 -33 -3 -76 -8 -95 -11 -19 -3 -66 -8 -104 -10 -38 -3
-73 -7 -78 -10 -4 -3 -42 -7 -84 -10 -42 -2 -81 -7 -88 -11 -6 -4 -18 -6 -27
-5 -9 2 -45 -2 -80 -8 -35 -6 -86 -13 -114 -16 -42 -4 -404 -64 -642 -106 -34
-6 -60 -15 -57 -19 3 -5 -2 -6 -10 -3 -13 5 -147 -19 -186 -33 -8 -3 -24 -7
-35 -9 -11 -2 -29 -6 -40 -8 -11 -2 -28 -5 -38 -5 -11 -1 -15 -6 -11 -13 4 -7
3 -8 -5 -4 -15 9 -282 -55 -275 -66 3 -4 -1 -5 -9 -2 -13 5 -258 -60 -282 -75
-5 -3 -12 -6 -15 -6 -31 -3 -98 -30 -93 -38 3 -6 1 -7 -6 -3 -29 18 -617 -216
-642 -255 -3 -6 -10 -10 -15 -10 -21 2 -44 -11 -38 -21 4 -7 2 -8 -4 -4 -12 7
-122 -51 -122 -65 0 -5 -3 -8 -7 -7 -16 3 -43 -15 -36 -25 3 -6 1 -7 -6 -3
-29 18 -351 -258 -351 -301 0 -7 -3 -13 -8 -13 -10 0 -58 -79 -55 -91 2 -5 -1
-9 -6 -9 -19 0 -50 -135 -50 -215 0 -107 29 -222 52 -208 6 3 7 1 3 -5 -9 -15
32 -95 44 -87 5 3 7 0 5 -8 -7 -16 113 -150 126 -141 5 3 8 0 7 -7 -4 -16 144
-140 160 -134 7 3 11 1 8 -4 -19 -30 587 -344 631 -327 8 3 12 2 9 -3 -4 -5
33 -24 81 -41 132 -48 284 -100 291 -98 4 1 21 -5 37 -12 17 -7 42 -13 57 -14
14 0 25 -3 23 -6 -6 -9 234 -72 245 -65 6 3 10 2 10 -4 0 -20 782 -190 816
-177 8 3 14 2 14 -3 0 -11 166 -35 181 -25 7 4 10 3 6 -3 -6 -9 139 -35 267
-49 23 -3 70 -9 106 -14 76 -12 456 -56 550 -65 36 -3 139 -12 230 -20 91 -8
208 -17 260 -19 52 -3 167 -10 255 -16 320 -20 790 -29 1258 -25 264 3 483 8
488 11 6 3 42 6 82 5 61 0 307 12 482 24 28 2 100 6 160 10 61 4 113 9 117 12
4 2 40 6 80 8 190 10 591 57 995 116 45 7 81 15 79 18 -2 3 12 6 32 7 58 1
147 16 150 25 2 4 9 6 16 3 14 -5 334 53 351 64 6 4 18 5 29 3 11 -1 16 2 12
8 -4 7 -1 9 8 5 17 -6 217 36 212 45 -2 3 17 7 42 8 26 1 48 7 50 13 2 5 8 8
12 5 15 -9 320 77 313 88 -3 6 -1 7 5 3 14 -9 102 13 102 26 0 5 4 6 10 3 11
-7 312 93 321 107 3 5 9 9 13 8 13 -3 66 12 66 19 0 4 7 8 15 8 29 0 215 85
208 96 -3 6 -1 7 5 3 16 -9 113 34 105 47 -3 6 -1 7 5 3 14 -8 72 20 72 36 0
6 3 8 7 5 14 -14 288 157 278 174 -3 5 1 6 9 3 21 -8 232 206 276 281 93 158
106 317 38 477 -12 27 -25 45 -31 41 -6 -4 -7 -1 -3 6 9 14 -27 72 -83 133
-23 23 -41 47 -41 52 0 4 -7 5 -16 2 -8 -3 -13 -2 -10 2 9 14 -81 95 -95 87
-7 -5 -10 -4 -6 3 9 14 -89 86 -104 76 -7 -4 -9 -3 -6 3 4 6 -4 18 -18 27 -14
9 -25 14 -25 11 0 -3 -9 4 -21 16 -11 11 -27 18 -35 15 -7 -3 -13 0 -11 6 2
11 -357 199 -372 195 -3 0 -16 4 -28 11 -44 25 -205 82 -214 76 -5 -3 -9 0 -9
6 0 6 -4 8 -10 5 -5 -3 -10 -2 -10 3 0 10 -100 43 -112 36 -4 -3 -8 -1 -8 4 0
12 -78 34 -92 26 -6 -4 -8 -3 -5 3 8 12 -347 118 -363 108 -5 -3 -10 -1 -10 6
0 7 -10 9 -25 7 -13 -3 -23 -2 -20 2 6 10 -182 53 -196 44 -7 -4 -9 -3 -6 3 7
11 -99 37 -113 28 -5 -3 -10 -1 -12 3 -4 12 -426 95 -449 89 -11 -3 -17 -2
-14 2 4 7 -130 32 -195 37 -14 1 -32 4 -40 7 -28 11 -243 39 -261 34 -11 -3
-17 -2 -15 2 4 6 -130 27 -244 37 -19 2 -91 10 -160 18 -69 8 -152 17 -185 20
-257 25 -417 36 -515 39 -63 1 -117 5 -120 8 -20 25 -1350 45 -1826 28z"/>
</g>
</svg>
