<svg width="26" height="26" viewBox="0 0 26 26" fill="none" xmlns="http://www.w3.org/2000/svg">
<circle cx="13" cy="13" r="13" fill="#FDF3F3"/>
<path d="M12.1 11.5H13.9C14.5075 11.5 15 11.0075 15 10.4V7.5H18.4C18.4552 7.5 18.5 7.54477 18.5 7.6V18.4C18.5 18.4552 18.4552 18.5 18.4 18.5H7.6C7.54477 18.5 7.5 18.4552 7.5 18.4V7.6C7.5 7.54477 7.54477 7.5 7.6 7.5H11V10.4C11 11.0075 11.4925 11.5 12.1 11.5ZM14 7.5V10.4C14 10.4552 13.9552 10.5 13.9 10.5H12.1C12.0448 10.5 12 10.4552 12 10.4V7.5H14Z" stroke="#C71A2E"/>
<path fill-rule="evenodd" clip-rule="evenodd" d="M13.3385 21.9936C8.37144 22.1806 4.1933 18.3055 4.00636 13.3385C3.91334 10.8669 4.82605 8.59073 6.37858 6.90436L19.1037 19.6142C17.5822 21.0196 15.5706 21.9096 13.3385 21.9936ZM7.09556 6.20712L19.7997 18.8961C21.2435 17.2318 22.083 15.0369 21.9936 12.6615C21.8067 7.69447 17.6286 3.81943 12.6615 4.00637C10.5255 4.08676 8.59148 4.90523 7.09556 6.20712ZM13.3761 22.9929C7.85715 23.2006 3.21478 18.895 3.00707 13.3761C2.79936 7.85716 7.10496 3.21479 12.6239 3.00708C18.1428 2.79937 22.7852 7.10497 22.9929 12.6239C23.2006 18.1428 18.895 22.7852 13.3761 22.9929Z" fill="#C71A2E"/>
</svg>
