<svg width="26" height="26" viewBox="0 0 26 26" fill="none" xmlns="http://www.w3.org/2000/svg">
<circle cx="13" cy="13" r="13" fill="#E9FAEE"/>
<path d="M12.1 11.5H13.9C14.5075 11.5 15 11.0075 15 10.4V7.5H18.4C18.4552 7.5 18.5 7.54477 18.5 7.6V18.4C18.5 18.4552 18.4552 18.5 18.4 18.5H7.6C7.54477 18.5 7.5 18.4552 7.5 18.4V7.6C7.5 7.54477 7.54477 7.5 7.6 7.5H11V10.4C11 11.0075 11.4925 11.5 12.1 11.5ZM14 7.5V10.4C14 10.4552 13.9552 10.5 13.9 10.5H12.1C12.0448 10.5 12 10.4552 12 10.4V7.5H14Z" stroke="#1AC755"/>
</svg>
